<svg xmlns="http://www.w3.org/2000/svg" width="98" height="112" fill="none" viewBox="0 0 98 112"><path fill="url(#paint0_linear)" d="M48.8665 0C22.1214 0 0.439941 21.0387 0.439941 46.9917C0.439941 72.9448 22.1214 93.9838 48.8665 93.9838L48.9693 111.675C73.8518 97.6202 97.516 78.8597 97.516 46.9917C97.516 21.039 75.6116 0 48.8665 0Z"/><g filter="url(#filter0_i)"><path fill="#1E8B7F" d="M48.8665 0C22.1214 0 0.439941 21.0387 0.439941 46.9917C0.439941 72.9448 22.1214 93.9838 48.8665 93.9838L48.9693 111.675C73.8518 97.6202 97.516 78.8597 97.516 46.9917C97.516 21.039 75.6116 0 48.8665 0Z"/></g><g filter="url(#filter1_i)"><path fill="#1E8B7F" d="M48.8665 0C22.1214 0 0.439941 21.0387 0.439941 46.9917C0.439941 72.9448 22.1214 93.9838 48.8665 93.9838L48.9693 111.675C73.8518 97.6202 97.516 78.8597 97.516 46.9917C97.516 21.039 75.6116 0 48.8665 0Z"/></g><mask id="mask0" width="98" height="112" x="0" y="0" mask-type="alpha" maskUnits="userSpaceOnUse"><path fill="#fff" d="M48.8665 0C22.1214 0 0.439941 21.0387 0.439941 46.9917C0.439941 72.9448 22.1214 93.9838 48.8665 93.9838L48.9693 111.675C73.8518 97.6202 97.516 78.8597 97.516 46.9917C97.516 21.039 75.6116 0 48.8665 0Z"/></mask><g mask="url(#mask0)"><path fill="url(#paint1_linear)" fill-opacity=".21" d="M22.5781 63.5588L63.9328 106.067L118.753 66.2204L79.1363 30.8027L70.6656 45.2357L22.5781 63.5588Z"/><g filter="url(#filter2_d)"><path fill="#000" d="M21.5332 48.3027V61.2144C21.5332 64.6231 24.3383 67.4121 27.7665 67.4121H60.0107C63.4389 67.4121 66.2436 64.6231 66.2436 61.2144V53.0603L79.0099 65.7536V48.3027H21.5332Z"/></g><path fill="#F6F6F6" d="M21.5332 48.3027V61.2144C21.5332 64.6231 24.3383 67.4121 27.7665 67.4121H60.0107C63.4389 67.4121 66.2436 64.6231 66.2436 61.2144V53.0603L79.0099 65.7536V48.3027H21.5332Z"/><path fill="#E2E2E2" d="M79.0099 48.3118V30.8122L66.2436 43.478V35.4005C66.2436 31.9918 63.4389 29.2031 60.0107 29.2031H27.7665C24.3379 29.2031 21.5332 31.9918 21.5332 35.4008V48.3121H79.0099V48.3118Z"/></g><defs><filter id="filter0_i" width="97.076" height="112.628" x=".44" y="0" color-interpolation-filters="sRGB" filterUnits="userSpaceOnUse"><feFlood flood-opacity="0" result="BackgroundImageFix"/><feBlend in="SourceGraphic" in2="BackgroundImageFix" mode="normal" result="shape"/><feColorMatrix in="SourceAlpha" result="hardAlpha" type="matrix" values="0 0 0 0 0 0 0 0 0 0 0 0 0 0 0 0 0 0 127 0"/><feOffset dy=".953"/><feGaussianBlur stdDeviation=".953"/><feComposite in2="hardAlpha" k2="-1" k3="1" operator="arithmetic"/><feColorMatrix type="matrix" values="0 0 0 0 1 0 0 0 0 1 0 0 0 0 1 0 0 0 0.2 0"/><feBlend in2="shape" mode="normal" result="effect1_innerShadow"/></filter><filter id="filter1_i" width="97.076" height="112.628" x=".44" y="-.953" color-interpolation-filters="sRGB" filterUnits="userSpaceOnUse"><feFlood flood-opacity="0" result="BackgroundImageFix"/><feBlend in="SourceGraphic" in2="BackgroundImageFix" mode="normal" result="shape"/><feColorMatrix in="SourceAlpha" result="hardAlpha" type="matrix" values="0 0 0 0 0 0 0 0 0 0 0 0 0 0 0 0 0 0 127 0"/><feOffset dy="-.953"/><feGaussianBlur stdDeviation=".953"/><feComposite in2="hardAlpha" k2="-1" k3="1" operator="arithmetic"/><feColorMatrix type="matrix" values="0 0 0 0 0 0 0 0 0 0 0 0 0 0 0 0 0 0 0.1 0"/><feBlend in2="shape" mode="normal" result="effect1_innerShadow"/></filter><filter id="filter2_d" width="61.29" height="22.923" x="20.103" y="47.826" color-interpolation-filters="sRGB" filterUnits="userSpaceOnUse"><feFlood flood-opacity="0" result="BackgroundImageFix"/><feColorMatrix in="SourceAlpha" type="matrix" values="0 0 0 0 0 0 0 0 0 0 0 0 0 0 0 0 0 0 127 0"/><feOffset dx=".477" dy="1.43"/><feGaussianBlur stdDeviation=".953"/><feColorMatrix type="matrix" values="0 0 0 0 0 0 0 0 0 0 0 0 0 0 0 0 0 0 0.1 0"/><feBlend in2="BackgroundImageFix" mode="normal" result="effect1_dropShadow"/><feBlend in="SourceGraphic" in2="effect1_dropShadow" mode="normal" result="shape"/></filter><linearGradient id="paint0_linear" x1="25.748" x2="79.784" y1="75.986" y2="29.125" gradientUnits="userSpaceOnUse"><stop stop-color="#058D80"/><stop offset="1" stop-color="#058D7F"/></linearGradient><linearGradient id="paint1_linear" x1="51.477" x2="88.503" y1="51.352" y2="103.63" gradientUnits="userSpaceOnUse"><stop/><stop offset="1" stop-color="#D8D8D8" stop-opacity="0"/></linearGradient></defs></svg>