<svg xmlns="http://www.w3.org/2000/svg" viewBox="0 0 125 125"><defs><style>.bd{fill:#fff}.be{fill:#eff8fb}.bf{fill:#8db7cc}.bg{fill:#acd2e8}.bh{fill:#a99773}.bi{fill:#daebf5}.bj{fill:#967a51}</style></defs><g id="u"><g><circle cx="62.5" cy="62.5" r="62.5" class="bh" transform="translate(-25.89 62.5) rotate(-45)"/><g><path d="M27.77,87.42l37.51,37.51c30.15-1.32,54.74-23.99,59.04-53.27l-27.8-27.8L27.77,87.42Z" class="bj"/><path d="M27.77,87.42l37.51,37.51c30.15-1.32,54.74-23.99,59.04-53.27l-27.8-27.8L27.77,87.42Z" class="bj"/></g><g><g><path d="M98.4,48.01v35.65c0,3.17-2.57,5.72-5.72,5.72h-30.17l1.99-1.14,23.93-13.77c.57-.33,.9-.92,.9-1.58v-30.6h3.35c3.16,0,5.72,2.57,5.72,5.72Z" class="bg"/><path d="M86.63,28.4l-24.12,13.89v47.09l25.92-14.91c.57-.33,.9-.92,.9-1.58V29.96c0-1.39-1.49-2.25-2.71-1.56Z" class="bi"/><path d="M38.37,28.4c-1.21-.69-2.71,.17-2.71,1.56v42.93c0,.66,.35,1.25,.9,1.58l25.92,14.91h.02V42.29l-24.14-13.89Z" class="be"/><path d="M62.49,89.38h-30.17c-3.16,0-5.72-2.55-5.72-5.72V48.01c0-3.16,2.57-5.72,5.72-5.72h3.35v30.6c0,.66,.35,1.25,.9,1.58l25.92,14.91Z" class="bd"/></g><g><path d="M57.41,75.34c-.09,0-.18-.02-.27-.07l-16.07-8.88c-.27-.15-.37-.49-.22-.76,.15-.27,.49-.37,.76-.22l16.07,8.88c.27,.15,.37,.49,.22,.76-.1,.18-.29,.29-.49,.29Z" class="bf"/><path d="M57.41,66.96c-.09,0-.18-.02-.27-.07l-16.07-8.88c-.27-.15-.37-.49-.22-.76,.15-.27,.49-.37,.76-.22l16.07,8.88c.27,.15,.37,.49,.22,.76-.1,.18-.29,.29-.49,.29Z" class="bf"/><path d="M57.41,58.61c-.09,0-.18-.02-.27-.07l-16.07-8.88c-.27-.15-.37-.49-.22-.76,.15-.27,.49-.37,.76-.22l16.07,8.88c.27,.15,.37,.49,.22,.76-.1,.18-.29,.29-.49,.29Z" class="bf"/><path d="M57.41,50.23c-.09,0-.18-.02-.27-.07l-16.07-8.86c-.27-.15-.37-.49-.22-.76,.15-.27,.49-.37,.76-.22l16.07,8.86c.27,.15,.37,.49,.22,.76-.1,.18-.29,.29-.49,.29Z" class="bf"/><path d="M67.59,75.34c-.2,0-.39-.1-.49-.29-.15-.27-.05-.61,.22-.76l16.07-8.88c.27-.15,.61-.05,.76,.22,.15,.27,.05,.61-.22,.76l-16.07,8.88c-.09,.05-.18,.07-.27,.07Z" class="bf"/><path d="M67.59,66.96c-.2,0-.39-.1-.49-.29-.15-.27-.05-.61,.22-.76l16.07-8.88c.27-.15,.61-.05,.76,.22,.15,.27,.05,.61-.22,.76l-16.07,8.88c-.09,.05-.18,.07-.27,.07Z" class="bf"/><path d="M67.59,58.61c-.2,0-.39-.1-.49-.29-.15-.27-.05-.61,.22-.76l16.07-8.88c.27-.15,.61-.05,.76,.22,.15,.27,.05,.61-.22,.76l-16.07,8.88c-.09,.05-.18,.07-.27,.07Z" class="bf"/><path d="M67.59,50.23c-.2,0-.39-.1-.49-.29-.15-.27-.05-.61,.22-.76l16.07-8.86c.27-.15,.61-.05,.76,.22,.15,.27,.05,.61-.22,.76l-16.07,8.86c-.08,.05-.18,.07-.27,.07Z" class="bf"/></g></g></g></g></svg>