<svg xmlns="http://www.w3.org/2000/svg" xmlns:xlink="http://www.w3.org/1999/xlink" id="Layer_1" x="0" y="0" version="1.1" viewBox="0 0 124 124" style="enable-background:new 0 0 124 124" xml:space="preserve"><style type="text/css">.st0{fill:#f6f7da}.st1{fill:#757676}.st2{fill:#e7e4ca}.st3{fill:#e3e1c7}.st4{fill:#e9e6cb}</style><circle cx="62" cy="62" r="62" class="st0"/><g><path d="M96.8,37.1c2.2,8.5-0.8,15-7,20.9c-12.1,11.6-24,23.5-35.6,35.6c-4.8,5-10.1,7.3-16.9,5.9 C25.1,94,22.9,83.2,31.8,72.9c1.3-1.5,3.9-3-0.5-4.3c-2.3-0.7-0.9-2.4,0.1-3.5c3.1-3.2,6.3-6.4,9.5-9.5 c7.8-7.8,15.5-15.5,23.3-23.3C75.8,20.9,88.9,22.8,96.8,37.1z M55.2,86.2c0.3-0.3,0.7-0.7,1-1c0.3-0.3,0.7-0.7,1-1 c0.3-0.3,0.7-0.7,1-1c0.3-0.3,0.7-0.7,1-1c0.3-0.3,0.7-0.7,1-1c0.3-0.3,0.7-0.7,1-1c0.3-0.3,0.7-0.7,1-1c0.3-0.3,0.7-0.7,1-1 c0.3-0.3,0.7-0.7,1-1c0.3-0.3,0.7-0.7,1-1c0.3-0.3,0.7-0.7,1-1c0.3-0.3,0.7-0.7,1-1c0.3-0.3,0.7-0.7,1-1c0.3-0.3,0.7-0.7,1-1 c0.3-0.3,0.7-0.7,1-1c0.3-0.3,0.7-0.7,1-1c0.3-0.3,0.7-0.7,1-1c0.3-0.3,0.7-0.7,1-1c0.3-0.3,0.7-0.7,1-1c0.3-0.3,0.7-0.7,1-1 c0.2-0.3,0.6-0.9,0.5-1c-0.6-0.8-0.9,0-1.3,0.3c-0.3,0.3-0.7,0.7-1,1c-0.3,0.3-0.7,0.7-1,1c-0.3,0.3-0.7,0.7-1,1 c-0.3,0.3-0.7,0.7-1,1c-0.3,0.3-0.7,0.7-1,1c-0.3,0.3-0.7,0.7-1,1c-0.3,0.3-0.7,0.7-1,1c-0.3,0.3-0.7,0.7-1,1c-0.3,0.3-0.7,0.7-1,1 c-0.3,0.3-0.7,0.7-1,1c-0.3,0.3-0.7,0.7-1,1c-0.3,0.3-0.7,0.7-1,1c-0.3,0.3-0.7,0.7-1,1c-0.3,0.3-0.7,0.7-1,1c-0.3,0.3-0.7,0.7-1,1 c-0.3,0.3-0.7,0.7-1,1c-0.3,0.3-0.7,0.7-1,1c-0.3,0.3-0.7,0.7-1,1c-0.3,0.3-0.7,0.7-1,1c-0.3,0.4-0.7,0.7-1,1.1 c-0.1,0.4-0.3,0.8-0.4,1.1C54.4,86.5,54.8,86.4,55.2,86.2z M36.2,68.2c0.3-0.3,0.7-0.7,1-1c0.3-0.3,0.7-0.7,1-1 c0.3-0.3,0.7-0.7,1-1c0.3-0.3,0.7-0.7,1-1c0.3-0.3,0.7-0.7,1-1c0.3-0.3,0.7-0.7,1-1c0.3-0.3,0.7-0.7,1-1c0.3-0.3,0.7-0.7,1-1 c0.3-0.3,0.7-0.7,1-1c0.3-0.3,0.7-0.7,1-1c0.3-0.3,0.7-0.7,1-1c0.3-0.3,0.7-0.7,1-1c0.3-0.3,0.7-0.7,1-1c0.3-0.3,0.7-0.7,1-1 c0.3-0.3,0.7-0.7,1-1c0.3-0.3,0.7-0.7,1-1c0.3-0.3,0.7-0.7,1-1c0.3-0.3,0.7-0.7,1-1c0.3-0.3,0.7-0.7,1-1c0.3-0.3,0.7-0.7,1-1 c0.3-0.3,0.7-0.7,1-1c0.3-0.3,0.7-0.6,1-1c1-0.7,2.1-1.4,3.1-2.1c5.7-1.9,10.8-1.2,14.9,3.6c4,4.8,2.9,10,1.2,15.6 c4.3-3.4,8.1-7.1,11.7-10.8c5.5-5.7,5.5-13.7,0.2-19.1C84,28,75.6,27.6,70,32.6c-3.5,3.2-6.7,6.8-10.1,10.3 c-0.8,0.9-1.7,1.8-2.5,2.6c-0.3,0.3-0.6,0.6-0.9,0.9c-0.3,0.3-0.7,0.7-1,1c-0.4,0.4-0.7,0.7-1.1,1.1c-0.3,0.3-0.7,0.7-1,1 c-0.3,0.3-0.7,0.7-1,1c-0.3,0.3-0.7,0.7-1,1c-0.3,0.3-0.7,0.7-1,1c-0.3,0.3-0.7,0.7-1,1c-0.3,0.3-0.7,0.7-1,1c-0.3,0.3-0.7,0.7-1,1 c-0.3,0.3-0.7,0.7-1,1c-0.3,0.3-0.7,0.7-1,1c-0.3,0.3-0.7,0.7-1,1c-0.3,0.3-0.7,0.7-1,1c-0.3,0.3-0.7,0.7-1,1c-0.3,0.3-0.7,0.7-1,1 c-0.3,0.3-0.7,0.7-1,1c-0.3,0.3-0.7,0.7-1,1c-0.3,0.3-0.7,0.7-1,1c-0.3,0.3-0.7,0.7-1,1c-0.3,0.3-0.7,0.7-1,1 c-0.3,0.4-0.7,0.7-1,1.1c-0.1,0.4-0.3,0.8-0.4,1.2C35.5,68.6,35.9,68.4,36.2,68.2z M53.1,87.6c-4.8-1.9-4.9-2.2-1.2-6 c6.8-6.8,13.7-13.5,20.4-20.5c3.5-3.7,3.3-8.3-0.1-11.5c-3.3-3.1-7.5-3.1-11.1,0.3c-9.2,9.1-18.5,18.2-27.4,27.5 c-5.7,5.9-3.3,14.9,4.5,17.7C43.7,97.1,48.6,94.7,53.1,87.6z" class="st1"/><path d="M53.1,87.6c-4.5,7-9.5,9.5-14.9,7.5c-7.7-2.8-10.2-11.8-4.5-17.7c9-9.3,18.2-18.4,27.4-27.5 c3.5-3.5,7.8-3.5,11.1-0.3c3.4,3.2,3.6,7.9,0.1,11.5c-6.7,6.9-13.6,13.6-20.4,20.5C48.2,85.4,48.3,85.7,53.1,87.6z" class="st2"/><path d="M59.9,42.9c3.3-3.4,6.5-7.1,10.1-10.3c5.6-5.1,14.1-4.6,19.3,0.8c5.3,5.5,5.3,13.5-0.2,19.1 c-3.6,3.8-7.4,7.4-11.7,10.8c1.7-5.6,2.9-10.8-1.2-15.6c-4.1-4.8-9.1-5.5-14.9-3.6C60.9,43.8,60.4,43.4,59.9,42.9z" class="st2"/><path d="M59.9,42.9c0.5,0.4,1,0.9,1.4,1.3c-1,0.7-2.1,1.4-3.1,2.1c-0.3-0.3-0.6-0.5-0.9-0.8 C58.2,44.7,59.1,43.8,59.9,42.9z" class="st3"/><path d="M54.4,48.5c0.4-0.4,0.7-0.7,1.1-1.1c0.2,0.3,0.5,0.5,0.7,0.8c-0.3,0.3-0.7,0.7-1,1C55,49,54.7,48.8,54.4,48.5z" class="st3"/><path d="M55.2,49.3c-0.3,0.3-0.7,0.7-1,1c-0.3-0.2-0.5-0.5-0.8-0.7c0.3-0.3,0.7-0.7,1-1C54.7,48.8,55,49,55.2,49.3z" class="st3"/><path d="M52.4,50.5c0.3-0.3,0.7-0.7,1-1c0.3,0.2,0.5,0.5,0.8,0.7c-0.3,0.3-0.7,0.7-1,1C53,51,52.7,50.8,52.4,50.5z" class="st3"/><path d="M53.2,51.3c-0.3,0.3-0.7,0.7-1,1c-0.3-0.2-0.5-0.5-0.8-0.7c0.3-0.3,0.7-0.7,1-1C52.7,50.8,53,51,53.2,51.3z" class="st3"/><path d="M50.4,52.5c0.3-0.3,0.7-0.7,1-1c0.3,0.2,0.5,0.5,0.8,0.7c-0.3,0.3-0.7,0.7-1,1C51,53,50.7,52.8,50.4,52.5z" class="st3"/><path d="M51.2,53.3c-0.3,0.3-0.7,0.7-1,1c-0.3-0.2-0.5-0.5-0.8-0.7c0.3-0.3,0.7-0.7,1-1C50.7,52.8,51,53,51.2,53.3z" class="st3"/><path d="M48.4,54.5c0.3-0.3,0.7-0.7,1-1c0.3,0.2,0.5,0.5,0.8,0.7c-0.3,0.3-0.7,0.7-1,1C49,55,48.7,54.8,48.4,54.5z" class="st3"/><path d="M47.4,55.5c0.3-0.3,0.7-0.7,1-1c0.3,0.2,0.5,0.5,0.8,0.7c-0.3,0.3-0.7,0.7-1,1C48,56,47.7,55.8,47.4,55.5z" class="st3"/><path d="M48.2,56.3c-0.3,0.3-0.7,0.7-1,1c-0.3-0.2-0.5-0.5-0.8-0.7c0.3-0.3,0.7-0.7,1-1C47.7,55.8,48,56,48.2,56.3z" class="st3"/><path d="M47.2,57.3c-0.3,0.3-0.7,0.7-1,1c-0.3-0.2-0.5-0.5-0.8-0.7c0.3-0.3,0.7-0.7,1-1C46.7,56.8,47,57,47.2,57.3z" class="st3"/><path d="M44.4,58.5c0.3-0.3,0.7-0.7,1-1c0.3,0.2,0.5,0.5,0.8,0.7c-0.3,0.3-0.7,0.7-1,1C45,59,44.7,58.8,44.4,58.5z" class="st3"/><path d="M45.2,59.2c-0.3,0.3-0.7,0.7-1,1c-0.3-0.2-0.5-0.5-0.8-0.7c0.3-0.3,0.7-0.7,1-1C44.7,58.8,45,59,45.2,59.2z" class="st3"/><path d="M44.2,60.2c-0.3,0.3-0.7,0.7-1,1c-0.3-0.2-0.5-0.5-0.8-0.7c0.3-0.3,0.7-0.7,1-1C43.7,59.8,44,60,44.2,60.2z" class="st3"/><path d="M41.4,61.5c0.3-0.3,0.7-0.7,1-1c0.3,0.2,0.5,0.5,0.8,0.7c-0.3,0.3-0.7,0.7-1,1C42,62,41.7,61.7,41.4,61.5z" class="st3"/><path d="M40.4,62.5c0.3-0.3,0.7-0.7,1-1c0.3,0.2,0.5,0.5,0.8,0.7c-0.3,0.3-0.7,0.7-1,1C41,63,40.7,62.7,40.4,62.5z" class="st3"/><path d="M39.4,63.5c0.3-0.3,0.7-0.7,1-1c0.3,0.2,0.5,0.5,0.8,0.7c-0.3,0.3-0.7,0.7-1,1C40,64,39.7,63.7,39.4,63.5z" class="st3"/><path d="M40.2,64.2c-0.3,0.3-0.7,0.7-1,1c-0.3-0.2-0.5-0.5-0.8-0.7c0.3-0.3,0.7-0.7,1-1C39.7,63.7,40,64,40.2,64.2z" class="st3"/><path d="M37.4,65.5c0.3-0.3,0.7-0.7,1-1c0.3,0.2,0.5,0.5,0.8,0.7c-0.3,0.3-0.7,0.7-1,1C38,66,37.7,65.7,37.4,65.5z" class="st3"/><path d="M74.4,65.5c0.4-0.3,0.8-1,1.3-0.3c0.1,0.1-0.3,0.7-0.5,1C74.9,66,74.7,65.7,74.4,65.5z" class="st2"/><path d="M36.4,66.5c0.3-0.3,0.7-0.7,1-1c0.3,0.2,0.5,0.5,0.8,0.7c-0.3,0.3-0.7,0.7-1,1C37,67,36.7,66.7,36.4,66.5z" class="st3"/><path d="M73.4,66.5c0.3-0.3,0.7-0.7,1-1c0.3,0.2,0.5,0.5,0.8,0.7c-0.3,0.3-0.7,0.7-1,1C73.9,67,73.7,66.7,73.4,66.5z" class="st2"/><path d="M57.2,47.3c-0.3,0.3-0.7,0.7-1,1c-0.2-0.3-0.5-0.5-0.7-0.8c0.3-0.3,0.7-0.7,1-1C56.7,46.7,57,47,57.2,47.3z" class="st3"/><path d="M35.4,67.6c0.3-0.4,0.7-0.7,1-1.1c0.3,0.2,0.5,0.5,0.8,0.7c-0.3,0.3-0.7,0.7-1,1C36,68,35.7,67.8,35.4,67.6z" class="st3"/><path d="M74.2,67.2c-0.3,0.3-0.7,0.7-1,1c-0.3-0.2-0.5-0.5-0.8-0.7c0.3-0.3,0.7-0.7,1-1C73.7,66.7,73.9,67,74.2,67.2z" class="st2"/><path d="M36.2,68.2c-0.4,0.2-0.8,0.3-1.2,0.5c0.1-0.4,0.3-0.8,0.4-1.2C35.7,67.8,36,68,36.2,68.2z" class="st3"/><path d="M73.2,68.2c-0.3,0.3-0.7,0.7-1,1c-0.3-0.2-0.5-0.5-0.8-0.7c0.3-0.3,0.7-0.7,1-1C72.7,67.7,72.9,68,73.2,68.2z" class="st2"/><path d="M72.2,69.2c-0.3,0.3-0.7,0.7-1,1c-0.3-0.2-0.5-0.5-0.8-0.7c0.3-0.3,0.7-0.7,1-1C71.7,68.7,71.9,69,72.2,69.2z" class="st2"/><path d="M71.2,70.2c-0.3,0.3-0.7,0.7-1,1c-0.3-0.2-0.5-0.5-0.8-0.7c0.3-0.3,0.7-0.7,1-1C70.7,69.7,70.9,70,71.2,70.2z" class="st2"/><path d="M58.3,46.3c-0.3,0.3-0.7,0.6-1,1c-0.2-0.3-0.5-0.5-0.7-0.8c0.3-0.3,0.6-0.6,0.9-0.9C57.7,45.8,58,46,58.3,46.3 z" class="st3"/><path d="M70.2,71.2c-0.3,0.3-0.7,0.7-1,1c-0.3-0.2-0.5-0.5-0.8-0.7c0.3-0.3,0.7-0.7,1-1C69.7,70.7,69.9,71,70.2,71.2z" class="st2"/><path d="M69.2,72.2c-0.3,0.3-0.7,0.7-1,1c-0.3-0.2-0.5-0.5-0.8-0.7c0.3-0.3,0.7-0.7,1-1C68.7,71.7,68.9,72,69.2,72.2z" class="st2"/><path d="M66.4,73.5c0.3-0.3,0.7-0.7,1-1c0.3,0.2,0.5,0.5,0.8,0.7c-0.3,0.3-0.7,0.7-1,1C66.9,74,66.7,73.7,66.4,73.5z" class="st2"/><path d="M65.4,74.5c0.3-0.3,0.7-0.7,1-1c0.3,0.2,0.5,0.5,0.8,0.7c-0.3,0.3-0.7,0.7-1,1C65.9,75,65.7,74.7,65.4,74.5z" class="st2"/><path d="M66.2,75.2c-0.3,0.3-0.7,0.7-1,1c-0.3-0.2-0.5-0.5-0.8-0.7c0.3-0.3,0.7-0.7,1-1C65.7,74.7,65.9,75,66.2,75.2z" class="st2"/><path d="M65.2,76.2c-0.3,0.3-0.7,0.7-1,1c-0.3-0.2-0.5-0.5-0.8-0.7c0.3-0.3,0.7-0.7,1-1C64.7,75.7,64.9,76,65.2,76.2z" class="st2"/><path d="M64.2,77.2c-0.3,0.3-0.7,0.7-1,1c-0.3-0.2-0.5-0.5-0.8-0.7c0.3-0.3,0.7-0.7,1-1C63.7,76.7,63.9,77,64.2,77.2z" class="st2"/><path d="M63.2,78.2c-0.3,0.3-0.7,0.7-1,1c-0.3-0.2-0.5-0.5-0.8-0.7c0.3-0.3,0.7-0.7,1-1C62.7,77.7,62.9,78,63.2,78.2z" class="st2"/><path d="M60.4,79.5c0.3-0.3,0.7-0.7,1-1c0.3,0.2,0.5,0.5,0.8,0.7c-0.3,0.3-0.7,0.7-1,1C60.9,80,60.7,79.7,60.4,79.5z" class="st2"/><path d="M61.2,80.2c-0.3,0.3-0.7,0.7-1,1c-0.3-0.2-0.5-0.5-0.8-0.7c0.3-0.3,0.7-0.7,1-1C60.7,79.7,60.9,80,61.2,80.2z" class="st2"/><path d="M60.2,81.2c-0.3,0.3-0.7,0.7-1,1c-0.3-0.2-0.5-0.5-0.8-0.7c0.3-0.3,0.7-0.7,1-1C59.7,80.7,59.9,81,60.2,81.2z" class="st2"/><path d="M57.4,82.5c0.3-0.3,0.7-0.7,1-1c0.3,0.2,0.5,0.5,0.8,0.7c-0.3,0.3-0.7,0.7-1,1C57.9,83,57.7,82.7,57.4,82.5z" class="st2"/><path d="M58.2,83.2c-0.3,0.3-0.7,0.7-1,1c-0.3-0.2-0.5-0.5-0.8-0.7c0.3-0.3,0.7-0.7,1-1C57.7,82.7,57.9,83,58.2,83.2z" class="st2"/><path d="M57.2,84.2c-0.3,0.3-0.7,0.7-1,1c-0.3-0.2-0.5-0.5-0.8-0.7c0.3-0.3,0.7-0.7,1-1C56.7,83.7,56.9,84,57.2,84.2z" class="st2"/><path d="M56.2,85.2c-0.3,0.3-0.7,0.7-1,1c-0.3-0.2-0.5-0.4-0.8-0.7c0.3-0.4,0.7-0.7,1-1.1 C55.7,84.7,55.9,84.9,56.2,85.2z" class="st2"/><path d="M55.2,86.2c-0.4,0.2-0.8,0.3-1.1,0.5c0.1-0.4,0.3-0.8,0.4-1.1C54.7,85.7,54.9,86,55.2,86.2z" class="st2"/></g><path d="M120.5,59.1c-6.4-6.4-12.8-12.8-19.3-19.2c-1.3-1.3-2.3-2.9-4.5-2.7c2.2,8.5-0.8,15-7,20.9	c-12.1,11.6-24,23.5-35.6,35.6c-4.8,5-10.1,7.3-16.9,5.9c-0.4,2.2,1.2,3.3,2.5,4.5c5.5,5.5,11,10.9,16.4,16.4c1,1,2.3,1.9,2.7,3.4	c1,0.1,2.1,0.1,3.2,0.1c34.2,0,62-27.8,62-62c0,0,0-0.1,0-0.1C122.5,61.4,121.6,60.1,120.5,59.1z" class="st4"/></svg>