<svg xmlns="http://www.w3.org/2000/svg" xmlns:xlink="http://www.w3.org/1999/xlink" id="Layer_1" x="0" y="0" version="1.1" viewBox="0 0 124 124" style="enable-background:new 0 0 124 124" xml:space="preserve"><style type="text/css">.st0{fill:#a99773}.st1{fill:#967a52}.st2{fill:#5d5b5a}.st3{fill:#bcdaeb}.st4{fill:#bcd9eb}.st5{fill:#50aecc}.st6{fill:#b8d4e5}.st7{fill:#5093b3}.st8{fill:#4fabc9}.st9{fill:#58595b}</style><circle cx="62" cy="62" r="62" class="st0"/><path d="M123.9,64.7c-1.7-0.7-2.9-2.1-4.2-3.4C111.9,53.6,104,45.8,96.1,38c-0.1,1.6-0.3,3.2-1.9,4.1	c-0.4,0.3-0.7,0.6-1.1,1c-3.1,4.6-7,8.1-13,8.2c-0.3,0.3-0.7,0.7-1,1c-4.7,4.9-9.4,9.8-14.1,14.7L62,70c-5.2,5-10.5,10-15.7,15.1	c-0.5,0.8-1.3,1-2.2,1c-1.4-0.1-2.8-0.2-4.1-0.3c-3.1,1.6-4.3,5.4-7.9,6.4c-0.1,2.7,1.8,4.1,3.4,5.8c8.5,8.7,17,17.4,25.6,26.1	c0.3,0,0.6,0,0.9,0C95.3,124,122.5,97.7,123.9,64.7z" class="st1"/><path d="M85.2,99.7L64.6,79.1V65.9c0-0.8-0.7-1.5-1.5-1.5s-1.5,0.7-1.5,1.5v13.3L41.7,99.2c-0.6,0.6-0.6,1.5,0,2.1	s1.5,0.6,2.1,0l17.8-17.8v16.6c0,0.8,0.7,1.5,1.5,1.5s1.5-0.7,1.5-1.5V83.3l18.5,18.5c0.3,0.3,0.7,0.4,1.1,0.4s0.8-0.1,1.1-0.4	C85.8,101.2,85.8,100.2,85.2,99.7z" class="st2"/><g><path d="M79.1,52.3c-4.7,4.9-9.4,9.8-14.1,14.7c-1.3,0.7-2.2,1.7-3,2.9c-5.2,5-10.5,10-15.7,15.1 c-3.6-3.7-7.2-7.4-10.7-11.1c10.8-10.8,21.6-21.5,32.4-32.3c0,0,0,0,0.9-1c2.5,2.5,8.5,8.4,11,10.9C79.1,52.1,79.1,52.3,79.1,52.3z" class="st3"/><path d="M78,49.4C75.5,47,73,44.5,70.6,42c-0.6-0.5-1.2-0.9-1.8-1.4c0.4-5.9,3.5-9.1,8.3-13.2 c5.4,5.2,10.7,10.5,16.1,15.7c-4.1,4.5-7,8.1-13,8.2C79.4,50.7,78.7,50.1,78,49.4z" class="st4"/><path d="M96.1,38c0.8,0.7-1.4,4.2-3,5.1c-4.7-5-11.4-10.8-16.1-15.7c0,0,0.5-0.7,1.9-1.7c2.5-1.4,4.2-1.1,6.2,0.9 C88.8,30.4,92.4,34.2,96.1,38z" class="st5"/><path d="M40,85.7c-3.1,1.6-4.3,5.4-7.9,6.4c-4.7-1.7-5.2-3.3-2-6.8c1.4-1.6,3.1-3,4.6-4.4C36.5,82.5,38.2,84.1,40,85.7 z" class="st6"/><path d="M35.5,74c3.6,3.7,7.2,7.4,10.7,11.1c-0.5,0.8-1.3,1-2.2,1c-2.7-3.4-5.6-6.7-9.4-9.1 C34.1,75.7,34.1,74.7,35.5,74z" class="st7"/><path d="M34.7,77c3.7,2.4,6.6,5.6,9.4,9.1c-1.4-0.1-2.8-0.2-4.1-0.3c-1.7-1.6-3.5-3.2-5.2-4.9 C34.7,79.6,34.7,78.3,34.7,77z" class="st8"/></g><rect width="3" height="22.7" x="83.3" y="24.2" class="st9" transform="matrix(-0.7071 0.7071 -0.7071 -0.7071 169.8685 0.8283)"/><rect width=".9" height="15.5" x="73.8" y="38.3" class="st7" transform="matrix(-0.7071 0.7071 -0.7071 -0.7071 159.3826 26.1582)"/><path d="M70,35.6l14.8,14.8c0.3-0.1,0.6-0.3,0.8-0.4L70.4,34.8C70.2,35.1,70.1,35.3,70,35.6z" class="st7"/></svg>