<svg xmlns="http://www.w3.org/2000/svg" xmlns:xlink="http://www.w3.org/1999/xlink" width="16" height="16" version="1.1" viewBox="0 0 16 16"><title>Artboard</title><desc>Created with Sketch.</desc><g id="Page-1" fill="none" fill-rule="evenodd" stroke="none" stroke-width="1"><g id="Artboard" fill="#343C44"><g id="end" transform="translate(1.000000, 1.000000)"><path id="Shape" d="M7,0 C3.134,0 0,3.134 0,7 C0,10.866 3.134,14 7,14 C10.866,14 14,10.866 14,7 C14,3.134 10.866,0 7,0 L7,0 Z M11.375,9.625 L9.625,11.375 L7,8.75 L4.375,11.375 L2.625,9.625 L5.25,7 L2.625,4.375 L4.375,2.625 L7,5.25 L9.625,2.625 L11.375,4.375 L8.75,7 L11.375,9.625 L11.375,9.625 Z"/></g></g></g></svg>