<svg xmlns="http://www.w3.org/2000/svg" xmlns:xlink="http://www.w3.org/1999/xlink" width="512" height="512" version="1.1" viewBox="0 0 512 512"><title>icon-name</title><desc>Created with Sketch.</desc><g id="Page-1" fill="none" fill-rule="evenodd" stroke="none" stroke-width="1"><g id="icon-name" fill="gray"><path id="icon-post-to-sis" d="M512,0 L96,0 L96,64 L0,64 L0,512 L448,512 L448,416 L512,416 L512,0 Z M160,64 L448,64 L448,352 L160,352 L160,64 Z M96,416 L96,128 L64,128 L64,416 L64,448 L96,448 L384,448 L384,416 L96,416 Z M416,160 L416,128 L256,128 L224,128 L224,160 L224,192 L224,224 L256,224 L352,224 L352,256 L192,256 L192,288 L352,288 L384,288 L384,224 L384,192 L352,192 L256,192 L256,160 L416,160 Z"/></g></g></svg>