<svg xmlns="http://www.w3.org/2000/svg" xmlns:xlink="http://www.w3.org/1999/xlink" width="28" height="36" version="1.1" viewBox="0 0 28 36"><title>flash</title><desc>Created with Sketch.</desc><g id="Icons" fill="none" fill-rule="evenodd" stroke="none" stroke-width="1"><g id="flash"><g id="icon-file-base-2"><path fill="#FFF" d="M0,2 L0,34 C0,35.105 0.899,36 1.993,36 L26.006,36 C27.107,36 28,35.11 28,34 L28,10 L18,0 L1.993,0 C0.892,0 0,0.89 0,2 Z"/><path id="icon-file-base" fill="#FFF" d="M0,2 L0,34 C0,35.105 0.899,36 1.993,36 L26.006,36 C27.107,36 28,35.11 28,34 L28,10 L18,0 L1.993,0 C0.892,0 0,0.89 0,2 Z M1.993,35 C1.445,35 1,34.552 1,34 L1,2 C1,1.448 1.445,1 1.993,1 L16.5,1 L16.5,9 C16.5,10.379 17.621,11.5 18.999,11.5 L27,11.5 L27,34 C27,34.552 26.554,35 26.006,35 L1.993,35 Z M27,10.5 L18.999,10.5 C18.173,10.5 17.5,9.827 17.5,9 L17.5,1 L17.585,1 L27,10.414 L27,10.5 L27,10.5 Z"/><path fill="#384A58" d="M0,2 L0,34 C0,35.105 0.899,36 1.993,36 L26.006,36 C27.107,36 28,35.11 28,34 L28,10 L18,0 L1.993,0 C0.892,0 0,0.89 0,2 Z M1.993,35 C1.445,35 1,34.552 1,34 L1,2 C1,1.448 1.445,1 1.993,1 L16.5,1 L16.5,9 C16.5,10.379 17.621,11.5 18.999,11.5 L27,11.5 L27,34 C27,34.552 26.554,35 26.006,35 L1.993,35 Z M27,10.5 L18.999,10.5 C18.173,10.5 17.5,9.827 17.5,9 L17.5,1 L17.585,1 L27,10.414 L27,10.5 L27,10.5 Z"/></g><circle id="Oval-5" cx="14" cy="21" r="8" fill="#384A58"/><path id="Imported-Layers" fill="#FFF" d="M16.2633636,18.6611084 C16.451,18.5921928 16.6604545,18.5539277 16.9059091,18.5539277 L16.9059091,17 C15.8518182,17 15.0070909,17.421012 14.3645455,18.270747 C14.1407273,18.569253 13.9169091,18.9442892 13.7290909,19.4036627 L13.2526364,20.6360482 C13.0865455,21.1336867 12.9421818,21.5011084 12.8266364,21.7459277 C12.675,22.0981205 12.5306364,22.3736867 12.3862727,22.5726265 C12.2057273,22.8100241 12.018,22.9706988 11.8086364,23.0780723 C11.5775455,23.1927711 11.3103636,23.2540723 11,23.2540723 L11,24.8232289 C12.0540909,24.8232289 12.8988182,24.3946024 13.5414545,23.5524819 C13.7219091,23.2998554 13.8952727,23.0090602 14.0613636,22.6645783 L14.4656364,21.6848193 L16.1621818,21.6848193 L16.1621818,20.1231807 L15.0430909,20.1231807 C15.1515455,19.8629398 15.2598182,19.6408675 15.3753636,19.4495422 C15.4979091,19.250506 15.628,19.0821205 15.7651818,18.9672289 C15.9168182,18.829494 16.0755455,18.7300241 16.2633636,18.6611084"/></g></g></svg>