<svg xmlns="http://www.w3.org/2000/svg" xmlns:xlink="http://www.w3.org/1999/xlink" width="28" height="36" version="1.1" viewBox="0 0 28 36"><title>ppt</title><desc>Created with Sketch.</desc><g id="Icons" fill="none" fill-rule="evenodd" stroke="none" stroke-width="1"><g id="ppt"><g id="icon-file-base-2"><path fill="#FFF" d="M0,2 L0,34 C0,35.105 0.899,36 1.993,36 L26.006,36 C27.107,36 28,35.11 28,34 L28,10 L18,0 L1.993,0 C0.892,0 0,0.89 0,2 Z"/><path id="icon-file-base" fill="#FFF" d="M0,2 L0,34 C0,35.105 0.899,36 1.993,36 L26.006,36 C27.107,36 28,35.11 28,34 L28,10 L18,0 L1.993,0 C0.892,0 0,0.89 0,2 Z M1.993,35 C1.445,35 1,34.552 1,34 L1,2 C1,1.448 1.445,1 1.993,1 L16.5,1 L16.5,9 C16.5,10.379 17.621,11.5 18.999,11.5 L27,11.5 L27,34 C27,34.552 26.554,35 26.006,35 L1.993,35 Z M27,10.5 L18.999,10.5 C18.173,10.5 17.5,9.827 17.5,9 L17.5,1 L17.585,1 L27,10.414 L27,10.5 L27,10.5 Z"/><path fill="#384A58" d="M0,2 L0,34 C0,35.105 0.899,36 1.993,36 L26.006,36 C27.107,36 28,35.11 28,34 L28,10 L18,0 L1.993,0 C0.892,0 0,0.89 0,2 Z M1.993,35 C1.445,35 1,34.552 1,34 L1,2 C1,1.448 1.445,1 1.993,1 L16.5,1 L16.5,9 C16.5,10.379 17.621,11.5 18.999,11.5 L27,11.5 L27,34 C27,34.552 26.554,35 26.006,35 L1.993,35 Z M27,10.5 L18.999,10.5 C18.173,10.5 17.5,9.827 17.5,9 L17.5,1 L17.585,1 L27,10.414 L27,10.5 L27,10.5 Z"/></g><path id="Oval-2" fill="#384A58" d="M14,24 C14,26.7614237 11.7614237,29 9,29 C6.23857625,29 4,26.7614237 4,24 C4,21.2385763 6.23857625,19 9,19 L9,24 L14,24 Z"/><rect id="Rectangle-12" width="4.984" height="2" x="19.016" y="19" fill="#384A58"/><rect id="Rectangle-12" width="20" height="2" x="4" y="15" fill="#384A58"/><rect id="Rectangle-13" width="4.984" height="2" x="19.016" y="23" fill="#384A58"/><rect id="Rectangle-14" width="4.984" height="2" x="19.016" y="27" fill="#384A58"/><rect id="Rectangle-17" width="2.044" height="2" x="16.003" y="19" fill="#384A58"/><rect id="Rectangle-16" width="2.044" height="2" x="16.003" y="23" fill="#384A58"/><rect id="Rectangle-15" width="2.044" height="2" x="16.003" y="27" fill="#384A58"/></g></g></svg>