<svg xmlns="http://www.w3.org/2000/svg" xmlns:xlink="http://www.w3.org/1999/xlink" width="28" height="36" version="1.1" viewBox="0 0 28 36"><title>csv</title><desc>Created with Sketch.</desc><g id="Icons" fill="none" fill-rule="evenodd" stroke="none" stroke-width="1"><g id="csv"><g id="icon-file-base-2"><path fill="#FFF" d="M0,2 L0,34 C0,35.105 0.899,36 1.993,36 L26.006,36 C27.107,36 28,35.11 28,34 L28,10 L18,0 L1.993,0 C0.892,0 0,0.89 0,2 Z"/><path id="icon-file-base" fill="#FFF" d="M0,2 L0,34 C0,35.105 0.899,36 1.993,36 L26.006,36 C27.107,36 28,35.11 28,34 L28,10 L18,0 L1.993,0 C0.892,0 0,0.89 0,2 Z M1.993,35 C1.445,35 1,34.552 1,34 L1,2 C1,1.448 1.445,1 1.993,1 L16.5,1 L16.5,9 C16.5,10.379 17.621,11.5 18.999,11.5 L27,11.5 L27,34 C27,34.552 26.554,35 26.006,35 L1.993,35 Z M27,10.5 L18.999,10.5 C18.173,10.5 17.5,9.827 17.5,9 L17.5,1 L17.585,1 L27,10.414 L27,10.5 L27,10.5 Z"/><path fill="#384A58" d="M0,2 L0,34 C0,35.105 0.899,36 1.993,36 L26.006,36 C27.107,36 28,35.11 28,34 L28,10 L18,0 L1.993,0 C0.892,0 0,0.89 0,2 Z M1.993,35 C1.445,35 1,34.552 1,34 L1,2 C1,1.448 1.445,1 1.993,1 L16.5,1 L16.5,9 C16.5,10.379 17.621,11.5 18.999,11.5 L27,11.5 L27,34 C27,34.552 26.554,35 26.006,35 L1.993,35 Z M27,10.5 L18.999,10.5 C18.173,10.5 17.5,9.827 17.5,9 L17.5,1 L17.585,1 L27,10.414 L27,10.5 L27,10.5 Z"/></g><rect id="Rectangle-4" width="5" height="4" x="4" y="14" fill="#FFF" stroke="#384A58"/><rect id="Rectangle-4" width="5" height="4" x="4" y="18" fill="#FFF" stroke="#384A58"/><rect id="Rectangle-5" width="5" height="4" x="9" y="14" fill="#FFF" stroke="#384A58"/><rect id="Rectangle-5" width="5" height="4" x="9" y="18" fill="#FFF" stroke="#384A58"/><rect id="Rectangle-6" width="5" height="4" x="14" y="14" fill="#FFF" stroke="#384A58"/><rect id="Rectangle-6" width="5" height="4" x="14" y="18" fill="#FFF" stroke="#384A58"/><rect id="Rectangle-7" width="5" height="4" x="19" y="14" fill="#FFF" stroke="#384A58"/><rect id="Rectangle-7" width="5" height="4" x="19" y="18" fill="#FFF" stroke="#384A58"/><rect id="Rectangle-11" width="5" height="4" x="4" y="22" fill="#FFF" stroke="#384A58"/><rect id="Rectangle-10" width="5" height="4" x="9" y="22" fill="#FFF" stroke="#384A58"/><rect id="Rectangle-9" width="5" height="4" x="14" y="22" fill="#FFF" stroke="#384A58"/><rect id="Rectangle-8" width="5" height="4" x="19" y="22" fill="#FFF" stroke="#384A58"/></g></g></svg>